<svg width="27" height="23" viewBox="0 0 27 23" fill="none" xmlns="http://www.w3.org/2000/svg">
<path d="M26.5992 11.943L24.068 14.4742C24.0108 14.5342 23.9421 14.582 23.866 14.6146C23.7898 14.6472 23.7078 14.6641 23.625 14.6641C23.5422 14.6641 23.4602 14.6472 23.384 14.6146C23.3079 14.582 23.2392 14.5342 23.182 14.4742L20.6508 11.943C20.5333 11.8255 20.4673 11.6661 20.4673 11.5C20.4673 11.3338 20.5333 11.1745 20.6508 11.057C20.7683 10.9395 20.9276 10.8735 21.0937 10.8735C21.2599 10.8735 21.4192 10.9395 21.5367 11.057L22.9922 12.5019V11.5C22.9914 9.45127 22.3279 7.45777 21.1006 5.81731C19.8734 4.17685 18.1483 2.97748 16.1831 2.39837C14.218 1.81926 12.1182 1.8915 10.1975 2.6043C8.27673 3.3171 6.63817 4.63219 5.52656 6.35311C5.43408 6.49277 5.29001 6.59006 5.12592 6.62367C4.96183 6.65728 4.79111 6.62446 4.65117 6.53241C4.58153 6.48844 4.5213 6.43108 4.47399 6.36366C4.42668 6.29624 4.39323 6.2201 4.37557 6.13965C4.35791 6.0592 4.3564 5.97605 4.37112 5.89501C4.38584 5.81397 4.4165 5.73666 4.46133 5.66757C5.72074 3.71627 7.57781 2.22492 9.75498 1.41644C11.9321 0.607948 14.3125 0.52573 16.5403 1.18207C18.768 1.83841 20.7236 3.19807 22.1146 5.05782C23.5057 6.91757 24.2575 9.17755 24.2578 11.5V12.5019L25.7133 11.057C25.8308 10.9395 25.9901 10.8735 26.1562 10.8735C26.3224 10.8735 26.4817 10.9395 26.5992 11.057C26.7167 11.1745 26.7827 11.3338 26.7827 11.5C26.7827 11.6661 26.7167 11.8255 26.5992 11.943ZM22.5387 17.3324C21.2793 19.2837 19.4222 20.7751 17.245 21.5835C15.0679 22.392 12.6875 22.4742 10.4597 21.8179C8.23198 21.1616 6.27644 19.8019 4.88539 17.9422C3.49434 16.0824 2.74248 13.8224 2.74219 11.5V10.498L1.28672 11.943C1.22959 12.0029 1.16086 12.0507 1.08472 12.0833C1.00857 12.116 0.926593 12.1328 0.84375 12.1328C0.760907 12.1328 0.678927 12.116 0.602782 12.0833C0.526637 12.0507 0.457914 12.0029 0.400781 11.943C0.340791 11.8858 0.293031 11.8171 0.260398 11.741C0.227765 11.6648 0.210937 11.5828 0.210938 11.5C0.210938 11.4171 0.227765 11.3352 0.260398 11.259C0.293031 11.1829 0.340791 11.1142 0.400781 11.057L2.93203 8.52577C2.98916 8.46578 3.05789 8.41802 3.13403 8.38539C3.21018 8.35275 3.29216 8.33593 3.375 8.33593C3.45784 8.33593 3.53982 8.35275 3.61597 8.38539C3.69211 8.41802 3.76084 8.46578 3.81797 8.52577L6.34922 11.057C6.40739 11.1152 6.45353 11.1843 6.48502 11.2603C6.5165 11.3363 6.5327 11.4177 6.5327 11.5C6.5327 11.5823 6.5165 11.6637 6.48502 11.7397C6.45353 11.8157 6.40739 11.8848 6.34922 11.943C6.29105 12.0011 6.22199 12.0473 6.14598 12.0788C6.06998 12.1102 5.98852 12.1264 5.90625 12.1264C5.82398 12.1264 5.74252 12.1102 5.66652 12.0788C5.59051 12.0473 5.52145 12.0011 5.46328 11.943L4.00781 10.498V11.5C4.00577 13.9165 4.93061 16.2418 6.5918 17.9969C7.58854 16.4549 9.0742 15.2924 10.8105 14.6957C9.94377 14.1184 9.28577 13.2775 8.93384 12.2973C8.58191 11.3171 8.55473 10.2497 8.85631 9.25289C9.15789 8.25607 9.77223 7.38275 10.6085 6.76206C11.4448 6.14137 12.4586 5.80625 13.5 5.80625C14.5414 5.80625 15.5552 6.14137 16.3915 6.76206C17.2278 7.38275 17.8421 8.25607 18.1437 9.25289C18.4453 10.2497 18.4181 11.3171 18.0662 12.2973C17.7142 13.2775 17.0562 14.1184 16.1895 14.6957C17.9302 15.29 19.4176 16.4576 20.4082 18.0074C20.8058 17.5889 21.1625 17.1333 21.4734 16.6469C21.5659 16.5072 21.71 16.4099 21.8741 16.3763C22.0382 16.3427 22.2089 16.3755 22.3488 16.4676C22.4185 16.5115 22.4787 16.5689 22.526 16.6363C22.5733 16.7037 22.6068 16.7799 22.6244 16.8603C22.6421 16.9408 22.6436 17.0239 22.6289 17.105C22.6142 17.186 22.5835 17.2633 22.5387 17.3324ZM13.5 14.2422C14.2092 14.2422 14.9025 14.0319 15.4922 13.6378C16.0819 13.2438 16.5416 12.6838 16.813 12.0285C17.0844 11.3733 17.1554 10.6523 17.017 9.95666C16.8787 9.26105 16.5371 8.6221 16.0356 8.1206C15.5341 7.6191 14.8952 7.27757 14.1996 7.1392C13.504 7.00084 12.783 7.07185 12.1277 7.34326C11.4725 7.61468 10.9124 8.07429 10.5184 8.664C10.1244 9.2537 9.91406 9.94701 9.91406 10.6562C9.91684 11.6064 10.2955 12.5169 10.9674 13.1888C11.6393 13.8607 12.5498 14.2394 13.5 14.2422ZM13.5 20.9922C15.6732 20.9964 17.7814 20.2514 19.4695 18.8828C18.8491 17.8543 17.9736 17.0036 16.9277 16.413C15.8818 15.8225 14.7011 15.5122 13.5 15.5122C12.2989 15.5122 11.1182 15.8225 10.0723 16.413C9.02642 17.0036 8.15085 17.8543 7.53047 18.8828C9.21985 20.2491 11.3272 20.9938 13.5 20.9922Z" fill="#767676"/>
</svg>
